<?xml version="1.0" standalone="no"?>
<!DOCTYPE svg PUBLIC "-//W3C//DTD SVG 20010904//EN"
 "http://www.w3.org/TR/2001/REC-SVG-20010904/DTD/svg10.dtd">
<svg version="1.0" xmlns="http://www.w3.org/2000/svg"
 width="1080.000000pt" height="1080.000000pt" viewBox="0 0 1080.000000 1080.000000"
 preserveAspectRatio="xMidYMid meet">

<g transform="translate(0.000000,1080.000000) scale(0.100000,-0.100000)"
fill="#000000" stroke="none">
<path d="M5619 8858 c0 -2 -7 -43 -14 -93 -7 -49 -21 -133 -30 -185 -27 -159
-32 -210 -24 -262 17 -104 79 -184 179 -230 37 -16 67 -20 165 -21 135 -2 160
6 228 71 60 58 90 141 117 332 5 30 16 98 25 149 21 125 18 138 -43 146 -26 3
-59 9 -74 11 -19 4 -28 1 -29 -8 -2 -44 -18 -160 -27 -198 -6 -25 -18 -88 -27
-140 -24 -133 -32 -156 -72 -195 -34 -33 -40 -35 -103 -35 -58 0 -72 4 -107
29 -64 46 -85 119 -63 213 16 68 49 288 52 342 l3 50 -60 13 c-58 12 -94 16
-96 11z"/>
<path d="M6502 8593 c-13 -38 -27 -77 -32 -88 -5 -11 -28 -69 -51 -130 -23
-60 -52 -137 -65 -170 -82 -214 -84 -222 -66 -238 9 -9 41 -24 70 -35 46 -18
54 -18 67 -5 8 8 15 19 15 24 0 5 16 51 36 102 20 50 45 117 56 147 11 30 24
64 29 75 5 11 33 87 64 169 40 110 52 152 44 162 -8 10 -124 54 -141 54 -2 0
-14 -30 -26 -67z"/>
<path d="M4418 8528 c-25 -18 -57 -50 -69 -72 l-23 -40 -9 27 c-6 20 -15 27
-35 27 -35 0 -122 -31 -122 -43 0 -13 113 -327 145 -402 7 -17 15 -44 19 -62
4 -17 15 -38 25 -47 17 -16 23 -15 77 7 42 16 60 29 62 44 2 11 -13 60 -32
109 -53 133 -67 197 -54 237 14 42 45 76 87 94 30 13 33 17 28 46 -8 49 -31
107 -42 107 -5 -1 -31 -15 -57 -32z"/>
<path d="M7085 8457 c-112 -100 -196 -177 -305 -281 -47 -45 -152 -141 -233
-215 -81 -74 -147 -138 -147 -142 0 -11 86 -59 107 -59 10 0 36 17 59 38 22
20 88 79 145 131 57 52 145 133 194 180 50 48 156 147 238 220 81 73 147 137
147 141 0 5 -26 22 -58 38 l-57 29 -90 -80z"/>
<path d="M3820 8267 c-186 -65 -277 -241 -207 -399 13 -29 37 -68 52 -86 112
-132 318 -128 462 9 89 84 107 140 51 157 -75 23 -76 23 -103 -24 -35 -59
-102 -98 -170 -99 -61 0 -114 27 -95 50 7 8 86 58 177 111 91 54 167 103 170
110 12 31 -69 125 -137 159 -43 22 -153 29 -200 12z m128 -128 c31 -10 47 -33
36 -50 -3 -5 -20 -16 -37 -24 -18 -8 -50 -26 -72 -40 -69 -43 -124 -69 -132
-61 -15 15 -6 97 14 124 39 54 120 76 191 51z"/>
<path d="M5014 8270 c-60 -24 -73 -112 -25 -161 42 -42 92 -40 137 5 38 38 43
72 17 116 -26 45 -78 61 -129 40z"/>
<path d="M7314 8246 c-10 -14 -73 -89 -140 -168 -143 -169 -172 -213 -190
-287 -27 -112 24 -234 132 -320 79 -63 127 -81 215 -81 115 0 185 41 289 170
25 30 72 87 105 126 79 93 120 146 120 156 0 14 -97 88 -115 88 -11 0 -65 -56
-136 -142 -154 -186 -193 -224 -243 -239 -97 -29 -211 56 -211 157 0 53 31
112 108 201 37 43 85 101 107 128 21 28 54 66 72 86 20 21 31 41 28 50 -6 12
-108 99 -117 99 -2 0 -13 -11 -24 -24z"/>
<path d="M3270 7868 c-81 -33 -145 -101 -166 -177 -16 -56 -19 -60 -34 -46
-25 22 -31 20 -85 -35 l-49 -50 74 -77 c263 -272 457 -463 470 -463 20 0 100
74 100 93 0 9 -38 55 -84 104 l-85 88 50 11 c85 20 145 71 185 159 31 65 32
153 4 210 -51 100 -80 132 -158 170 -76 38 -149 42 -222 13z m184 -191 c79
-79 84 -149 16 -217 -79 -79 -181 -59 -253 50 -11 15 -17 45 -17 79 0 50 3 57
44 97 41 42 46 44 100 44 56 0 59 -1 110 -53z"/>
<path d="M7986 7638 c-30 -69 -86 -231 -86 -247 0 -10 -3 -21 -7 -25 -5 -4
-15 -28 -24 -54 l-16 -47 -231 3 c-129 1 -232 -1 -232 -6 0 -5 15 -29 33 -53
19 -24 39 -54 46 -66 11 -22 18 -23 169 -25 l157 -3 -2 -25 c-1 -24 -18 -74
-63 -190 -12 -30 -24 -62 -26 -71 -7 -21 86 -159 106 -159 4 0 12 17 18 38 12
44 103 301 126 355 l16 39 209 -3 c116 -2 213 0 216 3 4 3 -14 35 -38 70 -43
61 -46 63 -98 70 -30 4 -88 8 -129 7 -135 -1 -126 -17 -75 129 25 70 45 135
45 144 0 17 -74 133 -92 144 -4 3 -14 -10 -22 -28z"/>
<path d="M2782 7293 c-63 -31 -122 -95 -157 -169 -36 -75 -36 -193 0 -264 44
-87 161 -159 258 -160 48 0 133 29 177 61 82 60 131 153 137 264 5 86 -18 147
-82 210 -60 60 -121 85 -209 85 -57 0 -82 -6 -124 -27z m161 -136 c53 -23 94
-64 111 -112 14 -42 14 -49 -4 -89 -21 -51 -74 -95 -122 -103 -68 -10 -175 66
-193 139 -4 15 -2 43 5 62 31 95 117 138 203 103z"/>
<path d="M2225 6804 c-9 -14 -23 -44 -31 -66 -16 -47 -10 -60 39 -78 18 -7 46
-18 62 -25 34 -15 155 -65 290 -120 50 -20 99 -40 110 -45 144 -64 196 -82
209 -71 13 11 61 130 54 135 -1 2 -48 22 -103 44 -55 23 -161 66 -235 97 -74
31 -164 67 -200 81 -36 14 -73 30 -84 35 -10 6 -36 17 -57 24 -36 13 -38 13
-54 -11z"/>
<path d="M8560 6553 c-93 -24 -161 -41 -255 -63 -49 -11 -106 -25 -125 -30
-19 -5 -78 -19 -130 -31 -52 -11 -102 -24 -111 -27 -18 -8 -19 4 31 -212 11
-47 25 -104 30 -127 5 -23 13 -50 18 -60 5 -10 20 -40 33 -66 13 -27 50 -73
81 -102 73 -68 167 -101 261 -91 34 3 66 11 71 16 6 6 19 10 30 10 32 0 119
54 156 96 83 96 108 231 71 389 -12 50 -29 122 -38 160 -22 100 -43 155 -56
154 -7 -1 -37 -8 -67 -16z m-5 -193 c9 -15 45 -189 45 -219 0 -13 -8 -49 -17
-79 -23 -71 -75 -115 -166 -139 -57 -15 -73 -16 -114 -5 -58 16 -106 51 -138
101 -28 46 -76 231 -63 247 4 6 31 14 59 18 27 4 60 11 72 16 12 4 67 18 122
30 55 13 111 26 125 30 36 12 68 12 75 0z"/>
<path d="M2394 6376 c-58 -27 -119 -94 -146 -159 -25 -62 -24 -189 3 -247 26
-59 72 -105 134 -138 68 -36 199 -38 260 -5 107 58 175 182 175 323 0 70 -25
150 -47 150 -10 0 -81 -39 -101 -55 -2 -2 4 -20 12 -40 9 -21 16 -47 16 -59 0
-28 -32 -120 -50 -141 -30 -36 -110 -60 -110 -32 0 15 30 157 63 295 29 124
27 126 -82 129 -62 2 -85 -1 -127 -21z m106 -148 c0 -18 -7 -53 -15 -78 -8
-25 -20 -72 -28 -105 -17 -78 -40 -85 -80 -23 -56 87 -22 200 69 228 49 14 54
12 54 -22z"/>
<path d="M2164 5767 c-3 -8 -4 -41 -2 -73 3 -51 6 -60 28 -71 44 -22 164 -75
200 -88 19 -7 62 -25 95 -40 l60 -26 -24 -20 c-13 -10 -30 -19 -37 -19 -8 0
-72 -23 -142 -51 -70 -28 -139 -55 -154 -61 -27 -10 -28 -12 -28 -94 0 -46 2
-84 5 -84 3 0 13 4 23 9 50 27 104 51 113 51 9 0 48 16 124 50 11 5 49 21 85
35 36 14 74 30 85 35 77 35 115 50 124 50 7 0 11 32 11 85 l0 85 -52 25 c-29
13 -118 52 -198 86 -80 34 -172 74 -205 89 -86 40 -104 44 -111 27z"/>
<path d="M8303 5659 c-60 -11 -100 -35 -152 -88 -62 -64 -81 -121 -81 -239 0
-77 4 -102 24 -145 13 -29 31 -59 40 -66 15 -12 22 -9 56 24 42 41 49 65 26
84 -19 16 -29 90 -20 147 5 36 16 56 45 85 22 22 47 39 57 39 16 0 17 -17 17
-217 l0 -218 62 2 c110 3 210 68 251 162 10 24 15 69 16 132 0 80 -4 102 -23
140 -62 120 -189 183 -318 158z m164 -179 c33 -20 55 -54 67 -102 14 -60 -55
-158 -110 -158 l-25 0 2 110 c4 182 6 187 66 150z"/>
<path d="M2398 5100 c-66 -25 -106 -56 -139 -108 -28 -44 -29 -52 -29 -159 0
-126 13 -166 77 -229 61 -61 107 -79 203 -79 75 0 91 4 138 30 97 53 143 129
150 248 6 95 -22 190 -75 255 -41 51 -70 54 -101 12 -29 -39 -28 -49 13 -111
31 -48 35 -61 35 -120 0 -64 -1 -68 -40 -108 -23 -23 -45 -39 -49 -37 -5 3
-12 32 -16 63 -3 32 -11 76 -17 98 -12 46 -30 125 -54 243 -5 27 -29 28 -96 2z
m53 -230 c10 -41 19 -84 19 -95 0 -11 6 -31 13 -45 19 -36 11 -50 -31 -50 -30
0 -43 8 -79 46 -33 36 -43 55 -43 81 0 66 51 147 89 140 9 -1 21 -31 32 -77z"/>
<path d="M8070 5007 c-36 -54 -60 -118 -81 -220 -13 -61 -6 -103 29 -177 19
-40 88 -80 138 -80 40 0 104 46 126 91 9 19 33 69 54 112 43 88 60 103 92 81
40 -28 26 -136 -28 -215 l-30 -44 38 -32 c48 -42 67 -41 95 5 47 74 69 162 66
259 -5 104 -26 143 -93 174 -114 52 -176 9 -253 -176 -14 -33 -32 -68 -41 -78
-21 -24 -53 -18 -71 14 -13 24 -13 33 4 90 17 57 41 107 78 162 10 16 7 23
-28 53 -22 18 -45 34 -50 34 -6 0 -26 -24 -45 -53z"/>
<path d="M7904 4503 c-4 -10 -15 -42 -27 -71 -13 -31 -17 -55 -11 -60 5 -4 77
-34 159 -66 83 -32 159 -62 170 -67 11 -5 58 -24 105 -42 75 -30 86 -32 92
-18 3 9 16 40 27 69 12 29 20 56 17 61 -3 4 -22 15 -43 23 -176 74 -213 88
-223 88 -7 0 -24 6 -38 14 -32 17 -204 86 -215 86 -4 0 -10 -8 -13 -17z"/>
<path d="M2585 4451 c-124 -34 -227 -126 -263 -232 -26 -77 -28 -155 -6 -224
9 -27 56 -132 105 -232 l90 -182 82 45 c45 24 89 47 97 50 8 3 22 9 30 14 8 5
105 54 215 109 110 55 208 106 218 113 18 13 14 22 -54 158 -88 177 -130 244
-183 293 -68 64 -128 89 -221 93 -44 2 -93 -1 -110 -5z m205 -176 c45 -24 98
-89 139 -170 23 -44 41 -85 41 -91 0 -11 -347 -192 -397 -208 -20 -6 -26 1
-59 68 -20 42 -40 78 -44 81 -13 8 -23 120 -15 166 12 71 98 150 185 170 43 9
116 2 150 -16z"/>
<path d="M7629 4306 c-88 -73 -152 -169 -183 -275 -20 -66 -20 -79 -1 -115 8
-15 15 -35 15 -44 0 -25 66 -98 127 -139 69 -46 194 -124 326 -201 31 -19 60
-38 63 -43 13 -21 35 -5 65 47 l31 56 -20 27 -20 28 35 12 c50 18 110 76 141
135 21 43 26 65 26 133 0 78 -2 85 -34 132 -72 102 -143 137 -267 129 -64 -4
-78 -9 -117 -39 -86 -67 -124 -131 -135 -226 -6 -51 -6 -52 -30 -40 -44 22
-66 63 -65 123 0 46 6 62 40 111 22 33 59 71 86 88 34 22 47 37 47 54 1 33
-37 91 -59 91 -10 0 -42 -20 -71 -44z m378 -285 c78 -36 103 -119 61 -200 -29
-57 -64 -82 -119 -88 -105 -10 -187 93 -150 190 16 40 71 96 105 106 46 13 57
13 103 -8z"/>
<path d="M8538 4254 c-31 -16 -54 -78 -44 -117 10 -41 33 -57 81 -57 36 0 48
5 69 31 42 50 35 119 -15 144 -35 19 -56 18 -91 -1z"/>
<path d="M7410 3664 c-28 -26 -50 -52 -50 -58 0 -6 43 -54 95 -106 118 -117
149 -166 143 -225 -7 -55 -40 -99 -88 -115 -63 -21 -97 -1 -225 132 -62 65
-120 118 -127 118 -8 0 -36 -22 -63 -50 l-49 -50 79 -82 c171 -180 208 -212
268 -232 54 -18 58 -18 114 -1 101 31 174 110 189 204 7 44 14 50 34 26 19
-23 31 -18 83 30 34 31 46 49 40 58 -13 23 -377 397 -386 397 -4 0 -30 -21
-57 -46z"/>
<path d="M3295 3550 c-61 -24 -145 -104 -177 -169 -26 -52 -31 -167 -10 -211
46 -95 115 -157 191 -169 28 -4 54 -10 57 -13 3 -3 -36 -51 -85 -106 l-91
-101 58 -55 57 -56 58 63 c32 34 97 107 145 162 48 55 119 134 158 175 101
107 164 179 164 190 0 15 -86 80 -107 80 -10 0 -24 -5 -31 -12 -9 -9 -12 -8
-12 4 0 33 -39 105 -78 146 -82 86 -192 112 -297 72z m205 -164 c19 -13 46
-45 59 -70 l24 -47 -29 -56 c-41 -79 -87 -114 -152 -115 -36 0 -62 7 -87 22
-37 23 -75 84 -75 120 0 32 28 80 73 128 39 39 44 42 97 42 42 0 64 -6 90 -24z"/>
<path d="M6820 3171 c-49 -16 -106 -50 -151 -90 -49 -43 -91 -113 -82 -137 6
-17 107 -48 111 -35 10 30 53 79 92 105 37 25 53 30 107 30 94 0 124 -41 56
-76 -50 -26 -127 -70 -181 -105 -29 -18 -55 -33 -57 -33 -20 0 -75 -48 -75
-66 0 -39 89 -132 149 -155 13 -6 61 -10 107 -10 89 0 132 15 206 73 60 47
108 145 108 224 0 85 -70 204 -147 250 -38 22 -60 27 -132 30 -47 2 -97 0
-111 -5z m240 -318 c0 -69 -69 -133 -143 -133 -69 0 -125 36 -98 63 5 5 58 38
118 73 117 68 123 68 123 -3z"/>
<path d="M3875 3146 c-18 -13 -18 -17 -4 -62 l15 -49 56 -6 c54 -6 131 -41
156 -71 6 -8 20 -34 31 -60 16 -38 17 -49 7 -64 -12 -16 -18 -15 -87 23 -274
150 -287 156 -304 149 -30 -11 -60 -97 -60 -171 1 -133 75 -225 223 -276 70
-24 104 -24 178 1 45 15 74 34 112 72 29 28 52 58 52 65 0 8 8 26 17 40 26 40
24 155 -5 213 -25 52 -111 140 -162 165 -90 44 -189 58 -225 31z m183 -397
c12 -7 22 -19 22 -25 0 -20 -69 -54 -109 -54 -89 0 -174 108 -145 184 5 13 24
6 107 -38 56 -29 112 -59 125 -67z"/>
<path d="M6365 2945 c-47 -18 -59 -27 -57 -42 5 -27 53 -166 62 -178 4 -5 13
-38 20 -72 19 -95 -1 -148 -70 -183 -33 -17 -40 -25 -40 -51 0 -32 22 -93 38
-103 15 -9 99 52 122 90 25 39 35 43 43 14 6 -25 63 -28 93 -5 10 8 29 15 42
15 21 0 30 19 15 34 -4 4 -15 30 -24 59 -9 29 -33 97 -53 152 -20 55 -49 134
-63 175 -26 75 -50 121 -62 119 -3 0 -33 -11 -66 -24z"/>
<path d="M4553 2838 c-11 -18 -46 -82 -78 -143 -32 -60 -77 -144 -100 -185
-54 -97 -134 -245 -156 -290 -17 -34 -17 -35 3 -43 12 -4 48 -8 80 -10 l59 -2
41 75 c22 41 58 109 81 150 76 141 128 235 136 243 6 6 19 -63 51 -293 11 -73
28 -213 29 -236 1 -12 11 -15 104 -32 55 -10 52 -13 110 97 18 33 49 90 71
128 21 37 57 102 79 143 21 41 45 81 52 88 15 17 17 9 46 -217 11 -90 25 -174
30 -188 5 -13 9 -46 9 -73 0 -54 -4 -51 80 -64 19 -3 47 -9 63 -12 l27 -6 -6
58 c-3 33 -10 84 -16 114 -6 30 -12 73 -15 95 -8 86 -44 352 -53 395 -5 25
-11 61 -15 81 -6 42 -12 44 -116 55 l-66 6 -68 -123 c-38 -68 -76 -138 -86
-155 -10 -18 -32 -59 -49 -92 -57 -111 -49 -128 -101 218 -6 41 -14 103 -18
137 -3 34 -10 65 -14 69 -12 12 -76 32 -127 39 -46 6 -48 5 -67 -27z"/>
<path d="M5667 2762 c-34 -36 -37 -97 -6 -136 17 -22 28 -26 74 -26 47 0 56 3
79 31 56 66 10 158 -80 159 -31 0 -46 -6 -67 -28z"/>
</g>
</svg>
